<svg width="45" height="45" viewBox="0 0 45 45" fill="none" xmlns="http://www.w3.org/2000/svg">
<g filter="url(#filter0_d_20_262)">
<path d="M22.5 1C19.0388 1 15.6554 2.02636 12.7775 3.94928C9.89967 5.87221 7.65665 8.60533 6.33212 11.803C5.00758 15.0007 4.66102 18.5194 5.33627 21.9141C6.01151 25.3087 7.67822 28.4269 10.1256 30.8744C12.5731 33.3218 15.6913 34.9885 19.0859 35.6637C22.4806 36.339 25.9993 35.9924 29.197 34.6679C32.3947 33.3434 35.1278 31.1003 37.0507 28.2225C38.9736 25.3446 40 21.9612 40 18.5C39.9978 13.8594 38.1534 9.40943 34.872 6.12801C31.5906 2.84659 27.1406 1.00216 22.5 1ZM22.5 5.47674C19.05 5.48961 15.7449 6.86583 13.3054 9.30538C10.8658 11.7449 9.48962 15.05 9.47675 18.5M22.5 10.0512C20.2592 10.0512 18.1102 10.9413 16.5258 12.5258C14.9413 14.1102 14.0512 16.2592 14.0512 18.5M22.5 13.5023C23.4884 13.5023 24.4547 13.7954 25.2766 14.3446C26.0984 14.8937 26.739 15.6743 27.1173 16.5875C27.4955 17.5007 27.5945 18.5055 27.4016 19.475C27.2088 20.4444 26.7328 21.3349 26.0339 22.0339C25.335 22.7328 24.4445 23.2088 23.475 23.4016C22.5055 23.5945 21.5007 23.4955 20.5875 23.1172C19.6743 22.739 18.8937 22.0984 18.3446 21.2766C17.7954 20.4547 17.5023 19.4884 17.5023 18.5C17.5023 17.1745 18.0289 15.9034 18.9661 14.9661C19.9034 14.0289 21.1745 13.5023 22.5 13.5023ZM22.5 26.9488C24.7408 26.9488 26.8898 26.0587 28.4742 24.4742C30.0587 22.8898 30.9488 20.7408 30.9488 18.5M22.5 31.5639C25.95 31.5511 29.2551 30.1749 31.6946 27.7353C34.1342 25.2958 35.5104 21.9907 35.5233 18.5407" fill="#421648"/>
<path d="M22.5 5.47674C19.05 5.48961 15.7449 6.86583 13.3054 9.30538C10.8658 11.7449 9.48962 15.05 9.47675 18.5M22.5 10.0512C20.2592 10.0512 18.1102 10.9413 16.5258 12.5258C14.9413 14.1102 14.0512 16.2592 14.0512 18.5M22.5 26.9488C24.7408 26.9488 26.8898 26.0587 28.4742 24.4742C30.0587 22.8898 30.9488 20.7408 30.9488 18.5M22.5 31.5639C25.95 31.5511 29.2551 30.1749 31.6946 27.7353C34.1342 25.2958 35.5104 21.9907 35.5233 18.5407M22.5 1C19.0388 1 15.6554 2.02636 12.7775 3.94928C9.89967 5.87221 7.65665 8.60533 6.33212 11.803C5.00758 15.0007 4.66102 18.5194 5.33627 21.9141C6.01151 25.3087 7.67822 28.4269 10.1256 30.8744C12.5731 33.3218 15.6913 34.9885 19.0859 35.6637C22.4806 36.339 25.9993 35.9924 29.197 34.6679C32.3947 33.3434 35.1278 31.1003 37.0507 28.2225C38.9736 25.3446 40 21.9612 40 18.5C39.9978 13.8594 38.1534 9.40943 34.872 6.12801C31.5906 2.84659 27.1406 1.00216 22.5 1ZM22.5 13.5023C23.4884 13.5023 24.4547 13.7954 25.2766 14.3446C26.0984 14.8937 26.739 15.6743 27.1173 16.5875C27.4955 17.5007 27.5945 18.5055 27.4016 19.475C27.2088 20.4444 26.7328 21.3349 26.0339 22.0339C25.335 22.7328 24.4445 23.2088 23.475 23.4016C22.5055 23.5945 21.5007 23.4955 20.5875 23.1172C19.6743 22.739 18.8937 22.0984 18.3446 21.2766C17.7954 20.4547 17.5023 19.4884 17.5023 18.5C17.5023 17.1745 18.0289 15.9034 18.9661 14.9661C19.9034 14.0289 21.1745 13.5023 22.5 13.5023Z" stroke="#E12E45" stroke-linecap="round" stroke-linejoin="round"/>
</g>
<defs>
<filter id="filter0_d_20_262" x="0.5" y="0.5" width="44" height="44" filterUnits="userSpaceOnUse" color-interpolation-filters="sRGB">
<feFlood flood-opacity="0" result="BackgroundImageFix"/>
<feColorMatrix in="SourceAlpha" type="matrix" values="0 0 0 0 0 0 0 0 0 0 0 0 0 0 0 0 0 0 127 0" result="hardAlpha"/>
<feOffset dy="4"/>
<feGaussianBlur stdDeviation="2"/>
<feComposite in2="hardAlpha" operator="out"/>
<feColorMatrix type="matrix" values="0 0 0 0 0 0 0 0 0 0 0 0 0 0 0 0 0 0 0.25 0"/>
<feBlend mode="normal" in2="BackgroundImageFix" result="effect1_dropShadow_20_262"/>
<feBlend mode="normal" in="SourceGraphic" in2="effect1_dropShadow_20_262" result="shape"/>
</filter>
</defs>
</svg>
