<svg width="45" height="45" viewBox="0 0 45 45" fill="none" xmlns="http://www.w3.org/2000/svg">
<g filter="url(#filter0_d_31_23)">
<path d="M17.7114 36L17.0149 30.4C16.6376 30.2542 16.2824 30.0792 15.9493 29.875C15.6161 29.6708 15.2893 29.4521 14.9689 29.2188L9.78856 31.4062L5 23.0938L9.48383 19.6812C9.45481 19.4771 9.4403 19.2805 9.4403 19.0915V17.9102C9.4403 17.7201 9.45481 17.5229 9.48383 17.3188L5 13.9062L9.78856 5.59375L14.9689 7.78125C15.2881 7.54792 15.6219 7.32917 15.9701 7.125C16.3184 6.92083 16.6667 6.74583 17.0149 6.6L17.7114 1H27.2886L27.9851 6.6C28.3624 6.74583 28.7182 6.92083 29.0525 7.125C29.3868 7.32917 29.713 7.54792 30.0311 7.78125L35.2114 5.59375L40 13.9062L35.5162 17.3188C35.5452 17.5229 35.5597 17.7201 35.5597 17.9102V19.0897C35.5597 19.2799 35.5307 19.4771 35.4726 19.6812L39.9565 23.0938L35.1679 31.4062L30.0311 29.2188C29.7119 29.4521 29.3781 29.6708 29.0299 29.875C28.6816 30.0792 28.3333 30.2542 27.9851 30.4L27.2886 36H17.7114ZM22.5871 24.625C24.2703 24.625 25.7069 24.0271 26.8968 22.8312C28.0867 21.6354 28.6816 20.1917 28.6816 18.5C28.6816 16.8083 28.0867 15.3646 26.8968 14.1687C25.7069 12.9729 24.2703 12.375 22.5871 12.375C20.8748 12.375 19.4307 12.9729 18.2547 14.1687C17.0788 15.3646 16.4914 16.8083 16.4925 18.5C16.4937 20.1917 17.0817 21.6354 18.2565 22.8312C19.4313 24.0271 20.8748 24.625 22.5871 24.625Z" fill="#421648"/>
<path d="M17.7114 36L17.0149 30.4C16.6376 30.2542 16.2824 30.0792 15.9493 29.875C15.6161 29.6708 15.2893 29.4521 14.9689 29.2188L9.78856 31.4062L5 23.0938L9.48383 19.6812C9.45481 19.4771 9.4403 19.2805 9.4403 19.0915V17.9102C9.4403 17.7201 9.45481 17.5229 9.48383 17.3188L5 13.9062L9.78856 5.59375L14.9689 7.78125C15.2881 7.54792 15.6219 7.32917 15.9701 7.125C16.3184 6.92083 16.6667 6.74583 17.0149 6.6L17.7114 1H27.2886L27.9851 6.6C28.3624 6.74583 28.7182 6.92083 29.0525 7.125C29.3868 7.32917 29.713 7.54792 30.0311 7.78125L35.2114 5.59375L40 13.9062L35.5162 17.3188C35.5452 17.5229 35.5597 17.7201 35.5597 17.9102V19.0897C35.5597 19.2799 35.5307 19.4771 35.4726 19.6812L39.9565 23.0938L35.1679 31.4062L30.0311 29.2188C29.7119 29.4521 29.3781 29.6708 29.0299 29.875C28.6816 30.0792 28.3333 30.2542 27.9851 30.4L27.2886 36H17.7114ZM22.5871 24.625C24.2703 24.625 25.7069 24.0271 26.8968 22.8312C28.0867 21.6354 28.6816 20.1917 28.6816 18.5C28.6816 16.8083 28.0867 15.3646 26.8968 14.1687C25.7069 12.9729 24.2703 12.375 22.5871 12.375C20.8748 12.375 19.4307 12.9729 18.2547 14.1687C17.0788 15.3646 16.4914 16.8083 16.4925 18.5C16.4937 20.1917 17.0817 21.6354 18.2565 22.8312C19.4313 24.0271 20.8748 24.625 22.5871 24.625Z" stroke="#E12E45"/>
</g>
<defs>
<filter id="filter0_d_31_23" x="0.347168" y="0.5" width="44.3057" height="44" filterUnits="userSpaceOnUse" color-interpolation-filters="sRGB">
<feFlood flood-opacity="0" result="BackgroundImageFix"/>
<feColorMatrix in="SourceAlpha" type="matrix" values="0 0 0 0 0 0 0 0 0 0 0 0 0 0 0 0 0 0 127 0" result="hardAlpha"/>
<feOffset dy="4"/>
<feGaussianBlur stdDeviation="2"/>
<feComposite in2="hardAlpha" operator="out"/>
<feColorMatrix type="matrix" values="0 0 0 0 0 0 0 0 0 0 0 0 0 0 0 0 0 0 0.25 0"/>
<feBlend mode="normal" in2="BackgroundImageFix" result="effect1_dropShadow_31_23"/>
<feBlend mode="normal" in="SourceGraphic" in2="effect1_dropShadow_31_23" result="shape"/>
</filter>
</defs>
</svg>
