<svg width="45" height="45" viewBox="0 0 45 45" fill="none" xmlns="http://www.w3.org/2000/svg">
<g filter="url(#filter0_d_20_265)">
<path fill-rule="evenodd" clip-rule="evenodd" d="M8.5 2.75C8.5 2.28587 8.31563 1.84075 7.98744 1.51256C7.65925 1.18437 7.21413 1 6.75 1C6.28587 1 5.84075 1.18437 5.51256 1.51256C5.18437 1.84075 5 2.28587 5 2.75V32.85C5 33.6854 5.33187 34.4866 5.92261 35.0774C6.51335 35.6681 7.31457 36 8.15 36H38.25C38.7141 36 39.1592 35.8156 39.4874 35.4874C39.8156 35.1592 40 34.7141 40 34.25C40 33.7859 39.8156 33.3408 39.4874 33.0126C39.1592 32.6844 38.7141 32.5 38.25 32.5H8.5V2.75ZM39.4873 10.9872C39.806 10.6572 39.9824 10.2151 39.9784 9.7563C39.9744 9.29745 39.7904 8.85853 39.4659 8.53407C39.1415 8.2096 38.7025 8.02556 38.2437 8.02157C37.7849 8.01758 37.3428 8.19397 37.0127 8.51275L26 19.5255L20.2372 13.7627C19.9091 13.4347 19.464 13.2504 19 13.2504C18.536 13.2504 18.0909 13.4347 17.7628 13.7627L10.7628 20.7628C10.5956 20.9242 10.4623 21.1173 10.3706 21.3308C10.2789 21.5443 10.2306 21.7739 10.2286 22.0063C10.2265 22.2387 10.2708 22.4691 10.3588 22.6842C10.4468 22.8992 10.5767 23.0946 10.7411 23.2589C10.9054 23.4233 11.1008 23.5532 11.3158 23.6412C11.5309 23.7292 11.7613 23.7735 11.9937 23.7714C12.2261 23.7694 12.4557 23.7211 12.6692 23.6294C12.8827 23.5377 13.0758 23.4044 13.2373 23.2372L19 17.4745L24.7628 23.2372C25.0909 23.5653 25.536 23.7496 26 23.7496C26.464 23.7496 26.9091 23.5653 27.2372 23.2372L39.4873 10.9872Z" fill="#421648"/>
<path fill-rule="evenodd" clip-rule="evenodd" d="M8.5 2.75C8.5 2.28587 8.31563 1.84075 7.98744 1.51256C7.65925 1.18437 7.21413 1 6.75 1C6.28587 1 5.84075 1.18437 5.51256 1.51256C5.18437 1.84075 5 2.28587 5 2.75V32.85C5 33.6854 5.33187 34.4866 5.92261 35.0774C6.51335 35.6681 7.31457 36 8.15 36H38.25C38.7141 36 39.1592 35.8156 39.4874 35.4874C39.8156 35.1592 40 34.7141 40 34.25C40 33.7859 39.8156 33.3408 39.4874 33.0126C39.1592 32.6844 38.7141 32.5 38.25 32.5H8.5V2.75ZM39.4873 10.9872C39.806 10.6572 39.9824 10.2151 39.9784 9.7563C39.9744 9.29745 39.7904 8.85853 39.4659 8.53407C39.1415 8.2096 38.7025 8.02556 38.2437 8.02157C37.7849 8.01758 37.3428 8.19397 37.0127 8.51275L26 19.5255L20.2372 13.7627C19.9091 13.4347 19.464 13.2504 19 13.2504C18.536 13.2504 18.0909 13.4347 17.7628 13.7627L10.7628 20.7628C10.5956 20.9242 10.4623 21.1173 10.3706 21.3308C10.2789 21.5443 10.2306 21.7739 10.2286 22.0063C10.2265 22.2387 10.2708 22.4691 10.3588 22.6842C10.4468 22.8992 10.5767 23.0946 10.7411 23.2589C10.9054 23.4233 11.1008 23.5532 11.3158 23.6412C11.5309 23.7292 11.7613 23.7735 11.9937 23.7714C12.2261 23.7694 12.4557 23.7211 12.6692 23.6294C12.8827 23.5377 13.0758 23.4044 13.2373 23.2372L19 17.4745L24.7628 23.2372C25.0909 23.5653 25.536 23.7496 26 23.7496C26.464 23.7496 26.9091 23.5653 27.2372 23.2372L39.4873 10.9872Z" stroke="#E12E45"/>
</g>
<defs>
<filter id="filter0_d_20_265" x="0.5" y="0.5" width="44" height="44" filterUnits="userSpaceOnUse" color-interpolation-filters="sRGB">
<feFlood flood-opacity="0" result="BackgroundImageFix"/>
<feColorMatrix in="SourceAlpha" type="matrix" values="0 0 0 0 0 0 0 0 0 0 0 0 0 0 0 0 0 0 127 0" result="hardAlpha"/>
<feOffset dy="4"/>
<feGaussianBlur stdDeviation="2"/>
<feComposite in2="hardAlpha" operator="out"/>
<feColorMatrix type="matrix" values="0 0 0 0 0 0 0 0 0 0 0 0 0 0 0 0 0 0 0.25 0"/>
<feBlend mode="normal" in2="BackgroundImageFix" result="effect1_dropShadow_20_265"/>
<feBlend mode="normal" in="SourceGraphic" in2="effect1_dropShadow_20_265" result="shape"/>
</filter>
</defs>
</svg>
